<mxfile host="app.diagrams.net" agent="Mozilla/5.0 (X11; Linux x86_64; rv:139.0) Gecko/20100101 Firefox/139.0" version="27.1.6">
  <diagram name="Page-1" id="XNn9qkbo-0PmLhz2_k7J">
    <mxGraphModel dx="247" dy="868" grid="1" gridSize="10" guides="1" tooltips="1" connect="1" arrows="0" fold="1" page="1" pageScale="1" pageWidth="1169" pageHeight="827" math="0" shadow="0">
      <root>
        <mxCell id="0" />
        <mxCell id="1" parent="0" />
        <mxCell id="MMlV0wLjxZRMG4Yw0ZiT-1" value="Start" style="ellipse;whiteSpace=wrap;html=1;fillColor=#dae8fc;strokeColor=#6c8ebf;" vertex="1" parent="1">
          <mxGeometry x="227.5" y="240" width="90" height="60" as="geometry" />
        </mxCell>
        <mxCell id="MMlV0wLjxZRMG4Yw0ZiT-4" value="" style="rounded=0;whiteSpace=wrap;html=1;fillColor=#ffe6cc;strokeColor=#d79b00;" vertex="1" parent="1">
          <mxGeometry x="230" y="330" width="85" height="40" as="geometry" />
        </mxCell>
        <mxCell id="MMlV0wLjxZRMG4Yw0ZiT-5" value="" style="rounded=0;whiteSpace=wrap;html=1;fillColor=#ffe6cc;strokeColor=#d79b00;" vertex="1" parent="1">
          <mxGeometry x="290" y="400" width="85" height="40" as="geometry" />
        </mxCell>
        <mxCell id="MMlV0wLjxZRMG4Yw0ZiT-6" value="" style="rounded=0;whiteSpace=wrap;html=1;fillColor=#ffe6cc;strokeColor=#d79b00;" vertex="1" parent="1">
          <mxGeometry x="180" y="400" width="85" height="40" as="geometry" />
        </mxCell>
        <mxCell id="MMlV0wLjxZRMG4Yw0ZiT-7" value="" style="rounded=0;whiteSpace=wrap;html=1;fillColor=#ffe6cc;strokeColor=#d79b00;" vertex="1" parent="1">
          <mxGeometry x="70" y="470" width="85" height="40" as="geometry" />
        </mxCell>
        <mxCell id="MMlV0wLjxZRMG4Yw0ZiT-11" value="" style="ellipse;whiteSpace=wrap;html=1;aspect=fixed;fillColor=#d5e8d4;strokeColor=#82b366;" vertex="1" parent="1">
          <mxGeometry x="70" y="550" width="40" height="40" as="geometry" />
        </mxCell>
        <mxCell id="MMlV0wLjxZRMG4Yw0ZiT-20" value="" style="ellipse;whiteSpace=wrap;html=1;aspect=fixed;fillColor=#d5e8d4;strokeColor=#82b366;" vertex="1" parent="1">
          <mxGeometry x="115" y="550" width="40" height="40" as="geometry" />
        </mxCell>
        <mxCell id="MMlV0wLjxZRMG4Yw0ZiT-33" value="" style="endArrow=classic;html=1;rounded=0;" edge="1" parent="1" source="MMlV0wLjxZRMG4Yw0ZiT-1" target="MMlV0wLjxZRMG4Yw0ZiT-4">
          <mxGeometry width="50" height="50" relative="1" as="geometry">
            <mxPoint x="530" y="410" as="sourcePoint" />
            <mxPoint x="580" y="360" as="targetPoint" />
          </mxGeometry>
        </mxCell>
        <mxCell id="MMlV0wLjxZRMG4Yw0ZiT-34" value="" style="endArrow=classic;html=1;rounded=0;" edge="1" parent="1" source="MMlV0wLjxZRMG4Yw0ZiT-4" target="MMlV0wLjxZRMG4Yw0ZiT-5">
          <mxGeometry width="50" height="50" relative="1" as="geometry">
            <mxPoint x="580" y="540" as="sourcePoint" />
            <mxPoint x="630" y="490" as="targetPoint" />
          </mxGeometry>
        </mxCell>
        <mxCell id="MMlV0wLjxZRMG4Yw0ZiT-35" value="" style="endArrow=classic;html=1;rounded=0;" edge="1" parent="1" source="MMlV0wLjxZRMG4Yw0ZiT-4" target="MMlV0wLjxZRMG4Yw0ZiT-6">
          <mxGeometry width="50" height="50" relative="1" as="geometry">
            <mxPoint x="230" y="370" as="sourcePoint" />
            <mxPoint x="255" y="400" as="targetPoint" />
          </mxGeometry>
        </mxCell>
        <mxCell id="MMlV0wLjxZRMG4Yw0ZiT-36" value="" style="endArrow=classic;html=1;rounded=0;" edge="1" parent="1" source="MMlV0wLjxZRMG4Yw0ZiT-6" target="MMlV0wLjxZRMG4Yw0ZiT-7">
          <mxGeometry width="50" height="50" relative="1" as="geometry">
            <mxPoint x="530" y="410" as="sourcePoint" />
            <mxPoint x="580" y="360" as="targetPoint" />
          </mxGeometry>
        </mxCell>
        <mxCell id="MMlV0wLjxZRMG4Yw0ZiT-37" value="" style="endArrow=classic;html=1;rounded=0;" edge="1" parent="1" source="MMlV0wLjxZRMG4Yw0ZiT-6" target="MMlV0wLjxZRMG4Yw0ZiT-42">
          <mxGeometry width="50" height="50" relative="1" as="geometry">
            <mxPoint x="600" y="600" as="sourcePoint" />
            <mxPoint x="222.5" y="470" as="targetPoint" />
          </mxGeometry>
        </mxCell>
        <mxCell id="MMlV0wLjxZRMG4Yw0ZiT-38" value="" style="endArrow=classic;html=1;rounded=0;" edge="1" parent="1" source="MMlV0wLjxZRMG4Yw0ZiT-5" target="MMlV0wLjxZRMG4Yw0ZiT-47">
          <mxGeometry width="50" height="50" relative="1" as="geometry">
            <mxPoint x="650" y="450" as="sourcePoint" />
            <mxPoint x="332.5" y="470" as="targetPoint" />
          </mxGeometry>
        </mxCell>
        <mxCell id="MMlV0wLjxZRMG4Yw0ZiT-39" value="" style="endArrow=classic;html=1;rounded=0;" edge="1" parent="1" source="MMlV0wLjxZRMG4Yw0ZiT-5" target="MMlV0wLjxZRMG4Yw0ZiT-52">
          <mxGeometry width="50" height="50" relative="1" as="geometry">
            <mxPoint x="730" y="490" as="sourcePoint" />
            <mxPoint x="411.07142857142867" y="470" as="targetPoint" />
          </mxGeometry>
        </mxCell>
        <mxCell id="MMlV0wLjxZRMG4Yw0ZiT-40" value="" style="endArrow=classic;html=1;rounded=0;" edge="1" parent="1" source="MMlV0wLjxZRMG4Yw0ZiT-7" target="MMlV0wLjxZRMG4Yw0ZiT-11">
          <mxGeometry width="50" height="50" relative="1" as="geometry">
            <mxPoint x="770" y="570" as="sourcePoint" />
            <mxPoint x="820" y="520" as="targetPoint" />
          </mxGeometry>
        </mxCell>
        <mxCell id="MMlV0wLjxZRMG4Yw0ZiT-41" value="" style="endArrow=classic;html=1;rounded=0;" edge="1" parent="1" source="MMlV0wLjxZRMG4Yw0ZiT-7" target="MMlV0wLjxZRMG4Yw0ZiT-20">
          <mxGeometry width="50" height="50" relative="1" as="geometry">
            <mxPoint x="710" y="680" as="sourcePoint" />
            <mxPoint x="760" y="630" as="targetPoint" />
          </mxGeometry>
        </mxCell>
        <mxCell id="MMlV0wLjxZRMG4Yw0ZiT-42" value="" style="rounded=0;whiteSpace=wrap;html=1;fillColor=#ffe6cc;strokeColor=#d79b00;" vertex="1" parent="1">
          <mxGeometry x="180" y="470" width="85" height="40" as="geometry" />
        </mxCell>
        <mxCell id="MMlV0wLjxZRMG4Yw0ZiT-43" value="" style="ellipse;whiteSpace=wrap;html=1;aspect=fixed;fillColor=#d5e8d4;strokeColor=#82b366;" vertex="1" parent="1">
          <mxGeometry x="180" y="550" width="40" height="40" as="geometry" />
        </mxCell>
        <mxCell id="MMlV0wLjxZRMG4Yw0ZiT-44" value="" style="ellipse;whiteSpace=wrap;html=1;aspect=fixed;fillColor=#d5e8d4;strokeColor=#82b366;" vertex="1" parent="1">
          <mxGeometry x="225" y="550" width="40" height="40" as="geometry" />
        </mxCell>
        <mxCell id="MMlV0wLjxZRMG4Yw0ZiT-45" value="" style="endArrow=classic;html=1;rounded=0;" edge="1" parent="1" source="MMlV0wLjxZRMG4Yw0ZiT-42" target="MMlV0wLjxZRMG4Yw0ZiT-43">
          <mxGeometry width="50" height="50" relative="1" as="geometry">
            <mxPoint x="880" y="570" as="sourcePoint" />
            <mxPoint x="930" y="520" as="targetPoint" />
          </mxGeometry>
        </mxCell>
        <mxCell id="MMlV0wLjxZRMG4Yw0ZiT-46" value="" style="endArrow=classic;html=1;rounded=0;" edge="1" parent="1" source="MMlV0wLjxZRMG4Yw0ZiT-42" target="MMlV0wLjxZRMG4Yw0ZiT-44">
          <mxGeometry width="50" height="50" relative="1" as="geometry">
            <mxPoint x="820" y="680" as="sourcePoint" />
            <mxPoint x="870" y="630" as="targetPoint" />
          </mxGeometry>
        </mxCell>
        <mxCell id="MMlV0wLjxZRMG4Yw0ZiT-47" value="" style="rounded=0;whiteSpace=wrap;html=1;fillColor=#ffe6cc;strokeColor=#d79b00;" vertex="1" parent="1">
          <mxGeometry x="290" y="470" width="85" height="40" as="geometry" />
        </mxCell>
        <mxCell id="MMlV0wLjxZRMG4Yw0ZiT-48" value="" style="ellipse;whiteSpace=wrap;html=1;aspect=fixed;fillColor=#d5e8d4;strokeColor=#82b366;" vertex="1" parent="1">
          <mxGeometry x="290" y="550" width="40" height="40" as="geometry" />
        </mxCell>
        <mxCell id="MMlV0wLjxZRMG4Yw0ZiT-49" value="" style="ellipse;whiteSpace=wrap;html=1;aspect=fixed;fillColor=#d5e8d4;strokeColor=#82b366;" vertex="1" parent="1">
          <mxGeometry x="335" y="550" width="40" height="40" as="geometry" />
        </mxCell>
        <mxCell id="MMlV0wLjxZRMG4Yw0ZiT-50" value="" style="endArrow=classic;html=1;rounded=0;" edge="1" parent="1" source="MMlV0wLjxZRMG4Yw0ZiT-47" target="MMlV0wLjxZRMG4Yw0ZiT-48">
          <mxGeometry width="50" height="50" relative="1" as="geometry">
            <mxPoint x="990" y="570" as="sourcePoint" />
            <mxPoint x="1040" y="520" as="targetPoint" />
          </mxGeometry>
        </mxCell>
        <mxCell id="MMlV0wLjxZRMG4Yw0ZiT-51" value="" style="endArrow=classic;html=1;rounded=0;" edge="1" parent="1" source="MMlV0wLjxZRMG4Yw0ZiT-47" target="MMlV0wLjxZRMG4Yw0ZiT-49">
          <mxGeometry width="50" height="50" relative="1" as="geometry">
            <mxPoint x="930" y="680" as="sourcePoint" />
            <mxPoint x="980" y="630" as="targetPoint" />
          </mxGeometry>
        </mxCell>
        <mxCell id="MMlV0wLjxZRMG4Yw0ZiT-52" value="" style="rounded=0;whiteSpace=wrap;html=1;fillColor=#ffe6cc;strokeColor=#d79b00;" vertex="1" parent="1">
          <mxGeometry x="400" y="470" width="85" height="40" as="geometry" />
        </mxCell>
        <mxCell id="MMlV0wLjxZRMG4Yw0ZiT-53" value="" style="ellipse;whiteSpace=wrap;html=1;aspect=fixed;fillColor=#d5e8d4;strokeColor=#82b366;" vertex="1" parent="1">
          <mxGeometry x="400" y="550" width="40" height="40" as="geometry" />
        </mxCell>
        <mxCell id="MMlV0wLjxZRMG4Yw0ZiT-54" value="" style="ellipse;whiteSpace=wrap;html=1;aspect=fixed;fillColor=#d5e8d4;strokeColor=#82b366;" vertex="1" parent="1">
          <mxGeometry x="445" y="550" width="40" height="40" as="geometry" />
        </mxCell>
        <mxCell id="MMlV0wLjxZRMG4Yw0ZiT-55" value="" style="endArrow=classic;html=1;rounded=0;" edge="1" parent="1" source="MMlV0wLjxZRMG4Yw0ZiT-52" target="MMlV0wLjxZRMG4Yw0ZiT-53">
          <mxGeometry width="50" height="50" relative="1" as="geometry">
            <mxPoint x="1100" y="570" as="sourcePoint" />
            <mxPoint x="1150" y="520" as="targetPoint" />
          </mxGeometry>
        </mxCell>
        <mxCell id="MMlV0wLjxZRMG4Yw0ZiT-56" value="" style="endArrow=classic;html=1;rounded=0;" edge="1" parent="1" source="MMlV0wLjxZRMG4Yw0ZiT-52" target="MMlV0wLjxZRMG4Yw0ZiT-54">
          <mxGeometry width="50" height="50" relative="1" as="geometry">
            <mxPoint x="1040" y="680" as="sourcePoint" />
            <mxPoint x="1090" y="630" as="targetPoint" />
          </mxGeometry>
        </mxCell>
        <mxCell id="MMlV0wLjxZRMG4Yw0ZiT-58" value="&lt;font style=&quot;font-size: 18px;&quot;&gt;Simple Program (3 conditions)&lt;/font&gt;" style="text;html=1;align=center;verticalAlign=middle;whiteSpace=wrap;rounded=0;" vertex="1" parent="1">
          <mxGeometry x="97.5" y="170" width="350" height="40" as="geometry" />
        </mxCell>
        <mxCell id="MMlV0wLjxZRMG4Yw0ZiT-74" value="&lt;b&gt;&lt;font style=&quot;font-size: 18px;&quot;&gt;Total Paths: 2&lt;sup&gt;3&lt;/sup&gt;&amp;nbsp;= 8&lt;/font&gt;&lt;/b&gt;" style="text;html=1;align=center;verticalAlign=middle;whiteSpace=wrap;rounded=0;" vertex="1" parent="1">
          <mxGeometry x="97.5" y="640" width="350" height="40" as="geometry" />
        </mxCell>
        <mxCell id="MMlV0wLjxZRMG4Yw0ZiT-75" value="Start" style="ellipse;whiteSpace=wrap;html=1;fillColor=#dae8fc;strokeColor=#6c8ebf;" vertex="1" parent="1">
          <mxGeometry x="767.5" y="240" width="90" height="60" as="geometry" />
        </mxCell>
        <mxCell id="MMlV0wLjxZRMG4Yw0ZiT-76" value="" style="rounded=0;whiteSpace=wrap;html=1;fillColor=#ffe6cc;strokeColor=#d79b00;" vertex="1" parent="1">
          <mxGeometry x="770" y="320" width="85" height="40" as="geometry" />
        </mxCell>
        <mxCell id="MMlV0wLjxZRMG4Yw0ZiT-77" value="" style="rounded=0;whiteSpace=wrap;html=1;fillColor=#ffe6cc;strokeColor=#d79b00;" vertex="1" parent="1">
          <mxGeometry x="830" y="374" width="85" height="40" as="geometry" />
        </mxCell>
        <mxCell id="MMlV0wLjxZRMG4Yw0ZiT-78" value="" style="rounded=0;whiteSpace=wrap;html=1;fillColor=#ffe6cc;strokeColor=#d79b00;" vertex="1" parent="1">
          <mxGeometry x="720" y="374" width="85" height="40" as="geometry" />
        </mxCell>
        <mxCell id="MMlV0wLjxZRMG4Yw0ZiT-79" value="" style="rounded=0;whiteSpace=wrap;html=1;fillColor=#ffe6cc;strokeColor=#d79b00;" vertex="1" parent="1">
          <mxGeometry x="610" y="440" width="85" height="40" as="geometry" />
        </mxCell>
        <mxCell id="MMlV0wLjxZRMG4Yw0ZiT-80" value="" style="endArrow=classic;html=1;rounded=0;" edge="1" parent="1" source="MMlV0wLjxZRMG4Yw0ZiT-75" target="MMlV0wLjxZRMG4Yw0ZiT-76">
          <mxGeometry width="50" height="50" relative="1" as="geometry">
            <mxPoint x="1070" y="410" as="sourcePoint" />
            <mxPoint x="1120" y="360" as="targetPoint" />
          </mxGeometry>
        </mxCell>
        <mxCell id="MMlV0wLjxZRMG4Yw0ZiT-81" value="" style="endArrow=classic;html=1;rounded=0;" edge="1" parent="1" source="MMlV0wLjxZRMG4Yw0ZiT-76" target="MMlV0wLjxZRMG4Yw0ZiT-77">
          <mxGeometry width="50" height="50" relative="1" as="geometry">
            <mxPoint x="1120" y="540" as="sourcePoint" />
            <mxPoint x="1170" y="490" as="targetPoint" />
          </mxGeometry>
        </mxCell>
        <mxCell id="MMlV0wLjxZRMG4Yw0ZiT-82" value="" style="endArrow=classic;html=1;rounded=0;" edge="1" parent="1" source="MMlV0wLjxZRMG4Yw0ZiT-76" target="MMlV0wLjxZRMG4Yw0ZiT-78">
          <mxGeometry width="50" height="50" relative="1" as="geometry">
            <mxPoint x="770" y="370" as="sourcePoint" />
            <mxPoint x="795" y="400" as="targetPoint" />
          </mxGeometry>
        </mxCell>
        <mxCell id="MMlV0wLjxZRMG4Yw0ZiT-83" value="" style="endArrow=classic;html=1;rounded=0;" edge="1" parent="1" source="MMlV0wLjxZRMG4Yw0ZiT-78" target="MMlV0wLjxZRMG4Yw0ZiT-79">
          <mxGeometry width="50" height="50" relative="1" as="geometry">
            <mxPoint x="1070" y="410" as="sourcePoint" />
            <mxPoint x="1120" y="360" as="targetPoint" />
          </mxGeometry>
        </mxCell>
        <mxCell id="MMlV0wLjxZRMG4Yw0ZiT-84" value="" style="endArrow=classic;html=1;rounded=0;" edge="1" parent="1" source="MMlV0wLjxZRMG4Yw0ZiT-78" target="MMlV0wLjxZRMG4Yw0ZiT-87">
          <mxGeometry width="50" height="50" relative="1" as="geometry">
            <mxPoint x="1140" y="600" as="sourcePoint" />
            <mxPoint x="762.5" y="470" as="targetPoint" />
          </mxGeometry>
        </mxCell>
        <mxCell id="MMlV0wLjxZRMG4Yw0ZiT-85" value="" style="endArrow=classic;html=1;rounded=0;" edge="1" parent="1" source="MMlV0wLjxZRMG4Yw0ZiT-77" target="MMlV0wLjxZRMG4Yw0ZiT-88">
          <mxGeometry width="50" height="50" relative="1" as="geometry">
            <mxPoint x="1190" y="450" as="sourcePoint" />
            <mxPoint x="872.5" y="470" as="targetPoint" />
          </mxGeometry>
        </mxCell>
        <mxCell id="MMlV0wLjxZRMG4Yw0ZiT-86" value="" style="endArrow=classic;html=1;rounded=0;" edge="1" parent="1" source="MMlV0wLjxZRMG4Yw0ZiT-77" target="MMlV0wLjxZRMG4Yw0ZiT-89">
          <mxGeometry width="50" height="50" relative="1" as="geometry">
            <mxPoint x="1270" y="490" as="sourcePoint" />
            <mxPoint x="951.0714285714287" y="470" as="targetPoint" />
          </mxGeometry>
        </mxCell>
        <mxCell id="MMlV0wLjxZRMG4Yw0ZiT-87" value="" style="rounded=0;whiteSpace=wrap;html=1;fillColor=#ffe6cc;strokeColor=#d79b00;" vertex="1" parent="1">
          <mxGeometry x="720" y="440" width="85" height="40" as="geometry" />
        </mxCell>
        <mxCell id="MMlV0wLjxZRMG4Yw0ZiT-88" value="" style="rounded=0;whiteSpace=wrap;html=1;fillColor=#ffe6cc;strokeColor=#d79b00;" vertex="1" parent="1">
          <mxGeometry x="830" y="440" width="85" height="40" as="geometry" />
        </mxCell>
        <mxCell id="MMlV0wLjxZRMG4Yw0ZiT-89" value="" style="rounded=0;whiteSpace=wrap;html=1;fillColor=#ffe6cc;strokeColor=#d79b00;" vertex="1" parent="1">
          <mxGeometry x="940" y="440" width="85" height="40" as="geometry" />
        </mxCell>
        <mxCell id="MMlV0wLjxZRMG4Yw0ZiT-90" value="&lt;b&gt;&lt;font style=&quot;font-size: 18px;&quot;&gt;Total Paths: 2&lt;sup&gt;10&lt;/sup&gt;&amp;nbsp;= 1024&lt;/font&gt;&lt;/b&gt;" style="text;html=1;align=center;verticalAlign=middle;whiteSpace=wrap;rounded=0;" vertex="1" parent="1">
          <mxGeometry x="637.5" y="640" width="350" height="40" as="geometry" />
        </mxCell>
        <mxCell id="MMlV0wLjxZRMG4Yw0ZiT-92" value="" style="ellipse;whiteSpace=wrap;html=1;aspect=fixed;fillColor=#d5e8d4;strokeColor=#82b366;" vertex="1" parent="1">
          <mxGeometry x="540" y="560" width="20" height="20" as="geometry" />
        </mxCell>
        <mxCell id="MMlV0wLjxZRMG4Yw0ZiT-93" value="" style="ellipse;whiteSpace=wrap;html=1;aspect=fixed;fillColor=#d5e8d4;strokeColor=#82b366;" vertex="1" parent="1">
          <mxGeometry x="565" y="560" width="20" height="20" as="geometry" />
        </mxCell>
        <mxCell id="MMlV0wLjxZRMG4Yw0ZiT-94" value="" style="ellipse;whiteSpace=wrap;html=1;aspect=fixed;fillColor=#d5e8d4;strokeColor=#82b366;" vertex="1" parent="1">
          <mxGeometry x="590" y="560" width="20" height="20" as="geometry" />
        </mxCell>
        <mxCell id="MMlV0wLjxZRMG4Yw0ZiT-100" value="" style="ellipse;whiteSpace=wrap;html=1;aspect=fixed;fillColor=#d5e8d4;strokeColor=#82b366;" vertex="1" parent="1">
          <mxGeometry x="617.5" y="560" width="20" height="20" as="geometry" />
        </mxCell>
        <mxCell id="MMlV0wLjxZRMG4Yw0ZiT-101" value="" style="ellipse;whiteSpace=wrap;html=1;aspect=fixed;fillColor=#d5e8d4;strokeColor=#82b366;" vertex="1" parent="1">
          <mxGeometry x="642.5" y="560" width="20" height="20" as="geometry" />
        </mxCell>
        <mxCell id="MMlV0wLjxZRMG4Yw0ZiT-102" value="" style="ellipse;whiteSpace=wrap;html=1;aspect=fixed;fillColor=#d5e8d4;strokeColor=#82b366;" vertex="1" parent="1">
          <mxGeometry x="667.5" y="560" width="20" height="20" as="geometry" />
        </mxCell>
        <mxCell id="MMlV0wLjxZRMG4Yw0ZiT-103" value="" style="ellipse;whiteSpace=wrap;html=1;aspect=fixed;fillColor=#d5e8d4;strokeColor=#82b366;" vertex="1" parent="1">
          <mxGeometry x="695" y="560" width="20" height="20" as="geometry" />
        </mxCell>
        <mxCell id="MMlV0wLjxZRMG4Yw0ZiT-104" value="" style="ellipse;whiteSpace=wrap;html=1;aspect=fixed;fillColor=#d5e8d4;strokeColor=#82b366;" vertex="1" parent="1">
          <mxGeometry x="720" y="560" width="20" height="20" as="geometry" />
        </mxCell>
        <mxCell id="MMlV0wLjxZRMG4Yw0ZiT-105" value="" style="ellipse;whiteSpace=wrap;html=1;aspect=fixed;fillColor=#d5e8d4;strokeColor=#82b366;" vertex="1" parent="1">
          <mxGeometry x="745" y="560" width="20" height="20" as="geometry" />
        </mxCell>
        <mxCell id="MMlV0wLjxZRMG4Yw0ZiT-106" value="" style="ellipse;whiteSpace=wrap;html=1;aspect=fixed;fillColor=#d5e8d4;strokeColor=#82b366;" vertex="1" parent="1">
          <mxGeometry x="770" y="560" width="20" height="20" as="geometry" />
        </mxCell>
        <mxCell id="MMlV0wLjxZRMG4Yw0ZiT-107" value="" style="ellipse;whiteSpace=wrap;html=1;aspect=fixed;fillColor=#d5e8d4;strokeColor=#82b366;" vertex="1" parent="1">
          <mxGeometry x="795" y="560" width="20" height="20" as="geometry" />
        </mxCell>
        <mxCell id="MMlV0wLjxZRMG4Yw0ZiT-108" value="" style="ellipse;whiteSpace=wrap;html=1;aspect=fixed;fillColor=#d5e8d4;strokeColor=#82b366;" vertex="1" parent="1">
          <mxGeometry x="820" y="560" width="20" height="20" as="geometry" />
        </mxCell>
        <mxCell id="MMlV0wLjxZRMG4Yw0ZiT-109" value="" style="ellipse;whiteSpace=wrap;html=1;aspect=fixed;fillColor=#d5e8d4;strokeColor=#82b366;" vertex="1" parent="1">
          <mxGeometry x="845" y="560" width="20" height="20" as="geometry" />
        </mxCell>
        <mxCell id="MMlV0wLjxZRMG4Yw0ZiT-110" value="" style="ellipse;whiteSpace=wrap;html=1;aspect=fixed;fillColor=#d5e8d4;strokeColor=#82b366;" vertex="1" parent="1">
          <mxGeometry x="870" y="560" width="20" height="20" as="geometry" />
        </mxCell>
        <mxCell id="MMlV0wLjxZRMG4Yw0ZiT-111" value="" style="ellipse;whiteSpace=wrap;html=1;aspect=fixed;fillColor=#d5e8d4;strokeColor=#82b366;" vertex="1" parent="1">
          <mxGeometry x="895" y="560" width="20" height="20" as="geometry" />
        </mxCell>
        <mxCell id="MMlV0wLjxZRMG4Yw0ZiT-112" value="" style="ellipse;whiteSpace=wrap;html=1;aspect=fixed;fillColor=#d5e8d4;strokeColor=#82b366;" vertex="1" parent="1">
          <mxGeometry x="917.5" y="560" width="20" height="20" as="geometry" />
        </mxCell>
        <mxCell id="MMlV0wLjxZRMG4Yw0ZiT-113" value="" style="ellipse;whiteSpace=wrap;html=1;aspect=fixed;fillColor=#d5e8d4;strokeColor=#82b366;" vertex="1" parent="1">
          <mxGeometry x="942.5" y="560" width="20" height="20" as="geometry" />
        </mxCell>
        <mxCell id="MMlV0wLjxZRMG4Yw0ZiT-114" value="" style="ellipse;whiteSpace=wrap;html=1;aspect=fixed;fillColor=#d5e8d4;strokeColor=#82b366;" vertex="1" parent="1">
          <mxGeometry x="967.5" y="560" width="20" height="20" as="geometry" />
        </mxCell>
        <mxCell id="MMlV0wLjxZRMG4Yw0ZiT-115" value="" style="ellipse;whiteSpace=wrap;html=1;aspect=fixed;fillColor=#d5e8d4;strokeColor=#82b366;" vertex="1" parent="1">
          <mxGeometry x="990" y="560" width="20" height="20" as="geometry" />
        </mxCell>
        <mxCell id="MMlV0wLjxZRMG4Yw0ZiT-116" value="" style="ellipse;whiteSpace=wrap;html=1;aspect=fixed;fillColor=#d5e8d4;strokeColor=#82b366;" vertex="1" parent="1">
          <mxGeometry x="1015" y="560" width="20" height="20" as="geometry" />
        </mxCell>
        <mxCell id="MMlV0wLjxZRMG4Yw0ZiT-117" value="" style="ellipse;whiteSpace=wrap;html=1;aspect=fixed;fillColor=#d5e8d4;strokeColor=#82b366;" vertex="1" parent="1">
          <mxGeometry x="1040" y="560" width="20" height="20" as="geometry" />
        </mxCell>
        <mxCell id="MMlV0wLjxZRMG4Yw0ZiT-118" value="" style="ellipse;whiteSpace=wrap;html=1;aspect=fixed;fillColor=#d5e8d4;strokeColor=#82b366;" vertex="1" parent="1">
          <mxGeometry x="1070" y="560" width="20" height="20" as="geometry" />
        </mxCell>
        <mxCell id="MMlV0wLjxZRMG4Yw0ZiT-119" value="" style="ellipse;whiteSpace=wrap;html=1;aspect=fixed;fillColor=#d5e8d4;strokeColor=#82b366;" vertex="1" parent="1">
          <mxGeometry x="1095" y="560" width="20" height="20" as="geometry" />
        </mxCell>
        <mxCell id="MMlV0wLjxZRMG4Yw0ZiT-120" value="" style="ellipse;whiteSpace=wrap;html=1;aspect=fixed;fillColor=#d5e8d4;strokeColor=#82b366;" vertex="1" parent="1">
          <mxGeometry x="1120" y="560" width="20" height="20" as="geometry" />
        </mxCell>
        <mxCell id="MMlV0wLjxZRMG4Yw0ZiT-121" value="&lt;div&gt;&lt;font style=&quot;font-size: 14px;&quot;&gt;&lt;b&gt;...&lt;/b&gt;&lt;/font&gt;&lt;/div&gt;&lt;div&gt;&lt;font style=&quot;font-size: 14px;&quot;&gt;&lt;br&gt;&lt;/font&gt;&lt;/div&gt;&lt;div&gt;&lt;font style=&quot;font-size: 14px;&quot;&gt;Many more paths...&lt;/font&gt;&lt;/div&gt;" style="text;html=1;align=center;verticalAlign=middle;whiteSpace=wrap;rounded=0;" vertex="1" parent="1">
          <mxGeometry x="637.5" y="500" width="350" height="40" as="geometry" />
        </mxCell>
        <mxCell id="MMlV0wLjxZRMG4Yw0ZiT-122" value="&lt;font style=&quot;font-size: 18px;&quot;&gt;Complex Program (10 conditions)&lt;/font&gt;" style="text;html=1;align=center;verticalAlign=middle;whiteSpace=wrap;rounded=0;" vertex="1" parent="1">
          <mxGeometry x="637.5" y="170" width="350" height="40" as="geometry" />
        </mxCell>
      </root>
    </mxGraphModel>
  </diagram>
</mxfile>
